<svg width="45" height="45" viewBox="0 0 45 45" fill="none" xmlns="http://www.w3.org/2000/svg">
<g id="database_39555 1">
<g id="Group">
<path id="Vector" d="M19.6875 1.7666C14.5723 2.10938 10.2305 3.2959 8.50781 4.83398C7.69042 5.55469 7.5498 6.09082 7.98925 6.78516C8.78027 8.02441 11.8477 9.30762 15.5127 9.92285C18.0264 10.3447 18.9668 10.415 22.4121 10.415C25.8838 10.415 26.7451 10.3623 29.1797 9.9668C32.2734 9.47461 34.6992 8.64844 36.1846 7.59375C36.8086 7.14551 37.2656 6.53027 37.2656 6.12598C37.2656 4.92188 35.0508 3.55957 31.7373 2.72461C28.3096 1.86328 23.748 1.50293 19.6875 1.7666Z" fill="white"/>
<path id="Vector_2" d="M7.73442 12.9111C7.73442 16.1895 7.76079 17.1123 7.84868 17.3408C8.01567 17.7188 8.85063 18.4658 9.55376 18.8701C11.3643 19.8809 14.2383 20.6279 17.9737 21.0674C19.8545 21.2871 25.1456 21.2871 27.0264 21.0674C31.6319 20.5225 35.0332 19.4766 36.4747 18.1406C37.3184 17.3584 37.2745 17.6572 37.2481 12.9287L37.2217 8.79785L36.7383 9.11426C32.9766 11.54 24.3809 12.6563 16.8311 11.6895C13.0166 11.1973 9.99321 10.2568 7.98051 8.92969L7.73442 8.77149V12.9111Z" fill="white"/>
<path id="Vector_3" d="M7.73442 23.8887V28.1777L7.9893 28.582C9.72075 31.3067 19.1954 32.9854 27.4659 32.0361C32.2383 31.4824 36.044 30.1113 37.0108 28.582L37.2657 28.1777V23.8887C37.2657 21.5332 37.2393 19.5996 37.2129 19.5996C37.1866 19.5996 37.002 19.7139 36.7999 19.8545C33.8555 21.876 26.9297 23.1065 20.417 22.7813C15.0118 22.5 10.4854 21.419 8.20024 19.8545C7.99809 19.7139 7.81352 19.5996 7.78716 19.5996C7.76079 19.5996 7.73442 21.5332 7.73442 23.8887Z" fill="white"/>
<path id="Vector_4" d="M7.73438 34.8487C7.73438 39.7266 7.69043 39.4365 8.50781 40.166C9.34278 40.9131 10.8809 41.6162 12.8232 42.1524C18.2813 43.6465 26.0859 43.6992 31.7461 42.2666C33.8291 41.7481 35.666 40.9307 36.5186 40.1572C37.3096 39.4278 37.2744 39.7178 37.248 34.8574L37.2217 30.5947L36.8262 30.8584C34.8662 32.1944 31.3154 33.1875 26.7627 33.6797C25.3477 33.8291 19.5557 33.8291 18.2373 33.6797C15.2842 33.3369 13.1924 32.9239 11.3994 32.335C10.2744 31.9658 8.9209 31.3594 8.32324 30.9639C8.1211 30.8233 7.90137 30.6826 7.84864 30.6387C7.76074 30.586 7.73438 31.4561 7.73438 34.8487Z" fill="white"/>
</g>
</g>
</svg>
