<svg width="25" height="25" viewBox="0 0 25 25" fill="none" xmlns="http://www.w3.org/2000/svg">
<g id="estrela-_1_ 1" clip-path="url(#clip0_48_25)">
<g id="Group">
<path id="Vector" d="M12.1729 0.683594C12.0898 0.732422 11.9922 0.825195 11.958 0.888672C11.9238 0.947266 11.1865 2.67578 10.3223 4.73145C9.45312 6.78223 8.73535 8.4668 8.72559 8.48145C8.71094 8.49121 6.9043 8.65234 4.70703 8.83789C2.50488 9.02832 0.634766 9.19434 0.546875 9.20898C0.454102 9.22363 0.302734 9.30664 0.205078 9.39941C0.0390625 9.55078 0.0244141 9.58496 0.0244141 9.8291C0.0244141 10.0293 0.0488281 10.127 0.12207 10.2051C0.175781 10.2686 1.59668 11.5088 3.28125 12.9688C4.96582 14.4287 6.35254 15.6445 6.36719 15.6641C6.38184 15.6885 5.97656 17.4951 5.46387 19.6826C4.95605 21.8701 4.54102 23.7207 4.54102 23.8037C4.54102 24.126 4.84863 24.4141 5.19531 24.4141C5.36621 24.4141 5.55664 24.3018 11.1426 20.9277L12.5 20.1074L14.2188 21.1475C19.6484 24.4141 19.6484 24.4141 19.8145 24.4141C20.1514 24.4141 20.459 24.1211 20.459 23.8037C20.459 23.6914 18.7402 16.1719 18.623 15.7617C18.6035 15.7031 19.3994 14.9854 21.665 13.0225C23.3496 11.5576 24.7852 10.3027 24.8535 10.2295C24.9512 10.1221 24.9756 10.0488 24.9756 9.8291C24.9756 9.58496 24.9609 9.55078 24.7949 9.39941C24.6973 9.30664 24.5459 9.22363 24.4531 9.20898C24.3652 9.19434 22.6025 9.03809 20.5322 8.8623C18.4668 8.68652 16.6602 8.53516 16.5186 8.51562C16.2744 8.49121 16.2646 8.48633 16.1719 8.26172C16.1182 8.13477 15.4102 6.45996 14.5996 4.54102C13.7891 2.62207 13.0908 0.986328 13.0518 0.913086C12.9004 0.610352 12.4707 0.498047 12.1729 0.683594Z" fill="#FFD600"/>
</g>
</g>
<defs>
<clipPath id="clip0_48_25">
<rect width="25" height="25" fill="white"/>
</clipPath>
</defs>
</svg>
