<svg width="45" height="46" viewBox="0 0 45 46" fill="none" xmlns="http://www.w3.org/2000/svg">
<g id="Group">
<path id="Vector" d="M17.6411 1.28742C13.7592 2.1349 9.66549 4.43015 6.6658 7.46695C-2.1568 16.2948 -2.22738 30.3842 6.48935 39.0708C9.34787 41.8958 11.8535 43.4848 15.559 44.8266C17.7823 45.6035 18.6998 45.7447 22.37 45.78C25.7932 45.78 27.0637 45.6388 29.0752 45.0032C36.098 42.7785 41.9562 36.9168 44.1795 29.8898C45.2735 26.394 45.2735 20.3204 44.1795 16.8245C40.6152 5.59544 29.0752 -1.18439 17.6411 1.28742ZM21.1349 9.58564V15.2355H17.5705H14.0062L14.2532 13.8937C14.6767 11.4925 17.1118 7.0079 18.8057 5.41888C19.688 4.60671 20.5702 3.93579 20.782 3.93579C20.9937 3.93579 21.1349 5.98386 21.1349 9.58564ZM26.1814 5.34826C27.8753 6.90196 29.2869 9.23253 30.3104 12.2693C31.3691 15.3414 31.5102 15.2355 27.4871 15.2355H23.9581V9.58564C23.9581 5.98386 24.0993 3.93579 24.311 3.93579C24.5227 3.93579 25.3697 4.5714 26.1814 5.34826ZM13.6533 7.74944C12.8769 9.26784 11.9594 11.5278 11.6417 12.7637L11.0065 15.0589L7.7598 15.1649L4.4778 15.2708L5.46593 13.4699C6.77167 11.0687 10.4066 7.50226 12.9122 6.12511C14.0415 5.52481 14.9943 4.99514 14.9943 4.99514C15.0296 4.99514 14.4297 6.23104 13.6533 7.74944ZM34.7217 7.89069C36.8038 9.51502 38.9212 12.0221 39.8741 13.929L40.5799 15.2708L37.3332 15.1649L34.0864 15.0589L33.4512 12.7637C33.1336 11.5278 32.216 9.26784 31.4397 7.74944L30.0633 5.03045L31.5102 5.77199C32.2866 6.16042 33.7688 7.11383 34.7217 7.89069ZM10.3713 23.3572V28.6539H6.94812H3.48966L3.24263 27.6652C2.88973 26.4293 2.88973 20.2851 3.24263 19.0138L3.48966 18.0604H6.94812H10.3713V23.3572ZM21.1349 23.3572V28.6539H17.2882H13.4768L13.2298 27.3121C12.9475 25.6171 12.9475 20.5676 13.2298 19.1551L13.4768 18.0604H17.2882H21.1349V23.3572ZM31.8631 19.367C31.969 20.1085 32.0749 21.9094 32.0749 23.3572C32.0749 24.8049 31.969 26.6058 31.8631 27.3121L31.6161 28.6539H27.8048H23.9581V23.3572V18.0604H27.8048H31.6161L31.8631 19.367ZM41.8503 19.0138C42.0268 19.5788 42.1327 21.521 42.1327 23.3572C42.1327 25.1934 42.0268 27.1355 41.8503 27.6652L41.6033 28.6539H38.1448H34.7217V23.3572V18.0604H38.1448H41.6033L41.8503 19.0138ZM11.6417 33.9506C11.9594 35.1866 12.8769 37.4465 13.6533 38.9649L15.0296 41.6839L13.5827 40.9423C10.4066 39.318 6.70109 35.7515 5.21889 32.7854L4.51309 31.4435L7.7598 31.5495L11.0065 31.6554L11.6417 33.9506ZM21.1349 37.1287C21.1349 40.7305 20.9937 42.7785 20.782 42.7785C20.5702 42.7785 19.688 42.1076 18.8057 41.2955C17.1118 39.7064 14.6767 35.2219 14.2532 32.7854L14.0062 31.4788H17.5705H21.1349V37.1287ZM31.0162 31.9379C31.0162 32.7854 29.6751 36.3871 28.687 38.2233C27.7342 39.9536 25.0168 42.7785 24.311 42.7785C24.0993 42.7785 23.9581 40.7305 23.9581 37.1287V31.4788H27.4871C30.2045 31.4788 31.0162 31.5848 31.0162 31.9379ZM39.627 33.1385C37.7566 36.3871 34.6511 39.3533 31.5102 40.9423L30.028 41.6839L31.4044 39.0708C32.1455 37.6231 33.0277 35.5044 33.3101 34.4097C33.6277 33.2797 33.9453 32.1498 34.0159 31.9026C34.1217 31.6201 35.1099 31.4788 37.4037 31.4788H40.6152L39.627 33.1385Z" fill="white"/>
</g>
</svg>
