<svg width="45" height="41" viewBox="0 0 45 41" fill="none" xmlns="http://www.w3.org/2000/svg">
<g id="Group">
<path id="Vector" d="M1.01953 1.01953L0 2.03906V16.1367C0 25.9102 0.105469 30.4805 0.386719 31.0781C1.16016 32.7656 2.46094 33.0469 9.80859 33.0469H16.5234V33.8906C16.5234 34.3828 16.1367 35.2266 15.6797 35.7539C14.8359 36.7031 14.7305 36.7383 10.3008 36.9141C7.83984 37.0195 5.58984 37.2305 5.34375 37.3711C4.67578 37.8281 3.79688 39.7266 4.00781 40.2891C4.28906 41.0273 40.7109 41.0273 40.9922 40.2891C41.2031 39.7266 40.3242 37.8281 39.6562 37.3711C39.4102 37.2305 37.1602 37.0195 34.6992 36.9141C30.2695 36.7383 30.1641 36.7031 29.3203 35.7539C28.8633 35.2266 28.4766 34.3828 28.4766 33.8906V33.0469H35.1211C39.0586 33.0469 42.1875 32.9062 42.8555 32.6602C44.9648 31.9219 45 31.7461 45 16.1719V2.03906L43.9805 1.01953L42.9609 0H22.5H2.03906L1.01953 1.01953ZM43.2422 2.07422C43.4531 2.53125 43.5938 7.10156 43.5938 14.5547V26.3672H22.5H1.40625V14.3086C1.40625 5.41406 1.51172 2.14453 1.82812 1.82812C2.14453 1.51172 7.24219 1.40625 22.5703 1.40625C42.293 1.40625 42.8906 1.44141 43.2422 2.07422ZM43.5938 29.0742C43.5938 29.7773 43.3477 30.6562 42.9961 31.0078C42.4688 31.6055 41.3789 31.6406 22.5703 31.6406C0.28125 31.6406 1.40625 31.7812 1.40625 29.1094V27.7734H22.5H43.5938V29.0742ZM27.0703 33.6797C27.0703 34.0312 27.3867 34.875 27.7383 35.6133L28.4062 36.9141H25.7695C23.4492 36.9141 23.168 36.9844 23.2734 37.5117C23.3789 38.0742 24.082 38.1445 31.0078 38.25C37.1953 38.3203 38.6719 38.4258 39.0234 38.8477C39.4102 39.3047 37.4414 39.375 22.5 39.375C7.55859 39.375 5.58984 39.3047 5.97656 38.8477C6.32812 38.4258 7.80469 38.3203 13.9922 38.25C20.918 38.1445 21.6211 38.0742 21.7266 37.5117C21.832 36.9844 21.5508 36.9141 19.2305 36.9141H16.5938L17.2617 35.6133C17.6133 34.875 17.9297 34.0312 17.9297 33.6797C17.9297 33.1172 18.3516 33.0469 22.5 33.0469C26.6484 33.0469 27.0703 33.1172 27.0703 33.6797Z" fill="white"/>
</g>
</svg>
