<svg width="66" height="56" viewBox="0 0 66 56" fill="none" xmlns="http://www.w3.org/2000/svg">
<g id="seta-direita 2">
<g id="Group">
<path id="Vector" d="M38.3995 51.2134C39.774 51.0254 42.836 50.1485 45.1364 49.2588C52.1391 46.5915 57.2478 41.7827 60.0498 35.2053C61.4237 32.0217 61.5425 24.9352 60.2761 21.7072C57.2096 13.7656 50.9012 8.34349 41.451 5.52686C37.6106 4.36544 29.0805 4.22242 25.2033 5.25444C11.0216 8.98284 2.71387 19.8138 4.90363 31.5803C7.37754 44.5752 22.4655 53.4356 38.3995 51.2134ZM26.7802 47.5165C18.0789 45.4719 11.4207 39.7063 9.25819 32.3706C6.13397 21.8121 14.3924 10.8959 27.4379 8.28764C40.2282 5.75952 53.4186 12.6894 56.6394 23.5449C60.9157 38.089 44.1328 51.5627 26.7802 47.5165Z" fill="#CD6315"/>
<path id="Vector_2" d="M34.1519 41.0157C34.5123 40.7264 34.7747 40.2245 34.781 39.8449C34.7867 39.5074 32.2883 37.0605 29.2843 34.4785L23.7769 29.7449L36.017 29.7392C46.9871 29.7543 48.3601 29.6508 48.8784 29.0266C49.2938 28.485 49.3009 28.0632 48.9032 27.5502C48.4068 26.8668 47.038 26.7172 36.0736 26.3646L23.8406 25.9486L29.5035 21.4022C32.5924 18.9224 35.1714 16.5606 35.1771 16.2232C35.1912 15.3796 34.1899 14.5189 33.1744 14.5019C32.1589 14.4848 16.7145 26.8839 16.7004 27.7276C16.6862 28.5712 31.7571 41.4819 32.7725 41.4989C33.1787 41.5057 33.7916 41.305 34.1519 41.0157Z" fill="#CD6315"/>
</g>
</g>
</svg>
