<?xml version="1.0" standalone="no"?>
<!DOCTYPE svg PUBLIC "-//W3C//DTD SVG 20010904//EN"
 "http://www.w3.org/TR/2001/REC-SVG-20010904/DTD/svg10.dtd">
<svg version="1.0" xmlns="http://www.w3.org/2000/svg"
 width="128.000000pt" height="128.000000pt" viewBox="0 0 128.000000 128.000000"
 preserveAspectRatio="xMidYMid meet">

<g transform="translate(0.000000,128.000000) scale(0.100000,-0.100000)"
fill="#000000" stroke="none">
<path d="M525 1188 c-27 -5 -87 -27 -132 -49 -137 -66 -236 -182 -289 -339
-26 -76 -26 -244 0 -320 63 -187 189 -313 376 -376 76 -26 244 -26 320 0 278
94 438 354 391 632 -53 307 -353 511 -666 452z m230 -83 c172 -45 305 -179
350 -352 65 -249 -94 -511 -350 -578 -251 -65 -513 94 -580 350 -89 343 237
669 580 580z"/>
<path d="M472 807 c-83 -84 -152 -159 -152 -167 0 -20 301 -320 321 -320 19 0
39 20 39 40 0 8 -50 65 -110 125 l-110 110 241 5 c216 4 243 7 253 23 8 12 8
22 0 35 -10 15 -37 18 -253 22 l-241 5 110 110 c60 60 110 117 110 125 0 20
-20 40 -40 40 -8 0 -84 -69 -168 -153z"/>
</g>
</svg>
